<svg data-v-423bf9ae="" xmlns="http://www.w3.org/2000/svg" viewBox="0 0 399 90" class="iconLeft"><!----><!----><!----><g data-v-423bf9ae="" id="f98500f5-0d62-4fef-9fd9-cbd2c06e73b7" fill="black" transform="matrix(5.623242696436797,0,0,5.623242696436797,109.20960618255023,2.347704886691524)"><path d="M6.27 12.75L4.34 12.75L4.34 5.63Q4.34 5.39 4.25 5.23Q4.16 5.07 3.95 4.86Q3.74 4.65 3.61 4.65L3.61 4.65Q3.33 4.65 2.87 5.21L2.87 5.21Q2.91 5.56 2.91 5.95L2.91 5.95L2.91 12.75L0.98 12.75L0.98 6.76Q0.98 5.57 0.82 5.10Q0.66 4.62 0.14 3.96L0.14 3.96L1.82 2.79Q2.27 3.11 2.46 3.56L2.46 3.56Q3.47 2.79 3.89 2.79Q4.31 2.79 5.47 3.86L5.47 3.86Q6.64 2.79 7.11 2.79L7.11 2.79Q7.46 2.79 8.31 3.52Q9.16 4.26 9.37 4.56Q9.58 4.86 9.58 5.35L9.58 5.35L9.58 12.75L7.64 12.75L7.64 5.63Q7.64 5.36 7.55 5.21Q7.45 5.07 7.22 4.86Q6.99 4.65 6.81 4.65Q6.64 4.65 6.26 5.11L6.26 5.11Q6.27 5.18 6.27 5.35L6.27 5.35L6.27 12.75ZM10.84 10.65L10.84 5.21L12.68 5.21L12.68 10.05Q12.68 10.77 12.85 11.16Q13.02 11.55 13.38 11.84L13.38 11.84L11.84 12.92Q10.84 12.12 10.84 10.65L10.84 10.65ZM11.79 2.28Q11.94 2.28 12.47 2.74Q13.01 3.19 13.01 3.35Q13.01 3.51 12.47 3.98Q11.93 4.44 11.78 4.44Q11.63 4.44 11.10 3.98Q10.57 3.53 10.57 3.37Q10.57 3.21 11.11 2.74Q11.65 2.28 11.79 2.28ZM16.14 7.66L16.14 12.75L14.29 12.75L14.29 5.11Q14.29 4.40 14.13 4.02Q13.96 3.64 13.59 3.33L13.59 3.33L15.13 2.25Q16.14 3.05 16.14 4.51L16.14 4.51L16.14 6.10Q17.23 5.04 17.60 5.04Q17.96 5.04 18.89 5.84Q19.81 6.64 19.84 7.08L19.84 7.08Q19.84 7.41 19.40 8.18Q18.96 8.95 18.55 9.35L18.55 9.35Q19.57 10.61 19.85 11.69L19.85 11.69L18.09 12.92Q17.77 11.79 17.42 11.04Q17.07 10.29 16.44 9.63L16.44 9.63L16.44 9.14Q16.87 8.83 17.36 8.24Q17.85 7.64 17.92 7.32L17.92 7.32Q17.53 6.79 17.25 6.79L17.25 6.79Q17.09 6.79 16.74 7.09Q16.38 7.39 16.14 7.66L16.14 7.66ZM26.08 8.96L26.08 8.96L26.08 9.46L22.69 9.46Q22.69 10.30 22.90 10.79L22.90 10.79Q22.97 10.96 23.16 11.14Q23.34 11.31 23.53 11.31Q23.73 11.31 24.02 10.98Q24.32 10.64 24.49 10.16L24.49 10.16L25.93 11.19Q25.55 11.89 24.77 12.40Q24.00 12.92 23.52 12.92Q23.04 12.92 22.14 12.18Q21.24 11.44 21.04 11.02Q20.85 10.61 20.85 8.98Q20.85 7.35 21.04 6.94Q21.24 6.52 22.14 5.78Q23.04 5.04 23.46 5.04Q23.88 5.04 24.79 5.78Q25.69 6.52 25.89 6.94Q26.08 7.35 26.08 8.96ZM24.14 7.20Q24.04 7.01 23.82 6.83Q23.60 6.65 23.42 6.65Q23.23 6.65 22.99 7.02Q22.75 7.39 22.69 8.13L22.69 8.13L24.29 8.13Q24.25 7.39 24.14 7.20ZM29.55 12.75L27.62 12.75L27.62 7.17Q27.62 5.45 27.90 4.96Q28.18 4.47 29.10 3.63Q30.02 2.79 30.46 2.79L30.46 2.79Q31.08 2.79 31.99 3.28Q32.90 3.77 33.35 4.38L33.35 4.38L31.79 5.46Q31.01 4.68 30.53 4.68L30.53 4.68Q30.35 4.68 30.11 4.91Q29.88 5.14 29.72 5.40Q29.55 5.66 29.55 6.71L29.55 6.71L29.55 7.03L32.06 7.03L32.06 8.72L29.55 8.72L29.55 12.75ZM36.02 11.10Q36.23 11.31 36.36 11.31Q36.48 11.31 36.70 11.10Q36.92 10.89 37.02 10.72L37.02 10.72Q37.20 10.42 37.20 8.99Q37.20 7.56 37.02 7.24L37.02 7.24Q36.92 7.07 36.70 6.86Q36.48 6.65 36.36 6.65Q36.23 6.65 36.02 6.86Q35.80 7.07 35.70 7.24L35.70 7.24Q35.52 7.55 35.52 8.97Q35.52 10.40 35.70 10.72L35.70 10.72Q35.80 10.89 36.02 11.10ZM37.63 12.24Q36.76 12.92 36.36 12.92Q35.95 12.92 35.09 12.24Q34.23 11.55 34.03 11.21L34.03 11.21Q33.74 10.70 33.74 8.97Q33.74 7.25 34.03 6.75L34.03 6.75Q34.23 6.41 35.09 5.73Q35.95 5.04 36.36 5.04Q36.76 5.04 37.63 5.73Q38.49 6.41 38.68 6.75L38.68 6.75Q38.98 7.25 38.98 8.97Q38.98 10.70 38.68 11.21L38.68 11.21Q38.49 11.55 37.63 12.24ZM39.89 10.65L39.89 2.25L41.73 2.25L41.73 10.05Q41.73 10.77 41.90 11.16Q42.07 11.55 42.43 11.84L42.43 11.84L40.89 12.92Q39.89 12.12 39.89 10.65L39.89 10.65ZM43.20 10.65L43.20 5.21L45.05 5.21L45.05 10.05Q45.05 10.77 45.22 11.16Q45.39 11.55 45.75 11.84L45.75 11.84L44.21 12.92Q43.20 12.12 43.20 10.65L43.20 10.65ZM44.16 2.28Q44.31 2.28 44.84 2.74Q45.37 3.19 45.37 3.35Q45.37 3.51 44.84 3.98Q44.30 4.44 44.15 4.44Q44.00 4.44 43.47 3.98Q42.94 3.53 42.94 3.37Q42.94 3.21 43.48 2.74Q44.02 2.28 44.16 2.28ZM48.45 11.10Q48.66 11.31 48.79 11.31Q48.92 11.31 49.13 11.10Q49.35 10.89 49.45 10.72L49.45 10.72Q49.63 10.42 49.63 8.99Q49.63 7.56 49.45 7.24L49.45 7.24Q49.35 7.07 49.13 6.86Q48.92 6.65 48.79 6.65Q48.66 6.65 48.45 6.86Q48.23 7.07 48.13 7.24L48.13 7.24Q47.95 7.55 47.95 8.97Q47.95 10.40 48.13 10.72L48.13 10.72Q48.23 10.89 48.45 11.10ZM50.06 12.24Q49.20 12.92 48.79 12.92Q48.38 12.92 47.52 12.24Q46.66 11.55 46.47 11.21L46.47 11.21Q46.17 10.70 46.17 8.97Q46.17 7.25 46.47 6.75L46.47 6.75Q46.66 6.41 47.52 5.73Q48.38 5.04 48.79 5.04Q49.20 5.04 50.06 5.73Q50.92 6.41 51.11 6.75L51.11 6.75Q51.41 7.25 51.41 8.97Q51.41 10.70 51.11 11.21L51.11 11.21Q50.92 11.55 50.06 12.24Z"></path></g><!----><g data-v-423bf9ae="" id="d222695b-ab6d-48d7-a0a2-adbb4d1c91df" transform="matrix(1.49997081813365,0,0,1.49997081813365,-2.9983346681154046,-1.9993570680309176)" stroke="none" fill="black"><path d="M56 40.678V36c0-2.757-2.243-5-5-5h-2.511a16.15 16.15 0 002.281-3.166A4.84 4.84 0 0052 28c2.757 0 5-2.243 5-5a5.006 5.006 0 00-4.04-4.903c-.39-8.651-6.301-15.219-14.312-16.014a16.264 16.264 0 00-3.305 0c-8.006.799-13.913 7.366-14.303 16.014A5.006 5.006 0 0017 23c0 2.757 2.243 5 5 5 .415 0 .826-.06 1.23-.166A16.21 16.21 0 0025.511 31H23c-2.757 0-5 2.243-5 5v4.679A10.241 10.241 0 0012.222 48H3a.998.998 0 00-.986 1.165l2 12A1 1 0 005 62h6a1 1 0 00.986-.836l1.209-7.256a7.008 7.008 0 004.804 3.012V57c0 2.757 2.243 5 5 5h28c2.757 0 5-2.243 5-5v-.08c3.387-.488 6-3.401 6-6.92A10.257 10.257 0 0056 40.678zM10.153 60H5.847L4.181 50h7.639l-1.667 10zM55 23c0 1.762-1.568 3.189-3.322 2.981.078-.194.139-.396.21-.594.074-.205.151-.407.217-.615.159-.497.3-1.003.417-1.517.044-.192.076-.388.114-.583.085-.437.158-.878.212-1.323.025-.21.044-.421.063-.634.016-.186.044-.369.055-.556A3.007 3.007 0 0155 23zm-31.949-5.162c.029-.439.076-.871.137-1.296l.022-.165a16.442 16.442 0 01.273-1.39c1.23-5.073 4.77-8.948 9.439-10.383.056-.017.114-.028.17-.045.368-.108.741-.206 1.123-.283.169-.034.345-.052.517-.08.279-.045.556-.096.842-.125a14.486 14.486 0 012.894.003l.048.007c5.252.554 9.47 3.969 11.377 8.872l.071.184c.12.32.223.651.323.984.055.187.112.373.161.564.054.208.098.421.145.633.066.309.132.619.181.937.016.101.027.205.041.307a17.693 17.693 0 01.134 1.279c-3.299.668-7.484-.922-10.677-4.114a16.023 16.023 0 01-2.564-3.346c-.356-.621-1.378-.621-1.734 0a16.023 16.023 0 01-2.564 3.346c-3.063 3.062-7.119 4.675-10.361 4.175l.002-.064zm-.729 8.143C20.567 26.189 19 24.762 19 23c0-1.316.853-2.438 2.035-2.841.011.187.039.37.055.556.019.212.038.424.063.634.054.445.127.886.212 1.323.038.195.07.391.114.583.117.514.258 1.02.417 1.517.067.208.143.411.217.615.071.198.132.401.209.594zm2.189-.003c-.153-.329-.286-.67-.416-1.012-.075-.195-.157-.385-.224-.583-.144-.43-.262-.872-.371-1.317-.032-.132-.075-.259-.104-.392a16.742 16.742 0 01-.254-1.542c-.011-.091-.032-.178-.042-.269-.034-.313-.035-.632-.051-.948 3.833.468 8.312-1.311 11.774-4.774a18.133 18.133 0 002.017-2.4 18 18 0 002.018 2.4c3.115 3.115 6.99 4.856 10.51 4.856.538 0 1.067-.044 1.585-.127-.017.331-.019.664-.054.992-.01.091-.03.178-.042.269-.064.52-.143 1.036-.254 1.542-.029.133-.072.26-.104.392-.109.445-.227.887-.371 1.317-.067.199-.15.389-.224.583-.13.342-.263.683-.416 1.012-.915 1.958-2.219 3.676-3.876 5.022H28.387c-1.656-1.345-2.961-3.062-3.876-5.021zM14 50a8.262 8.262 0 014-7.071V54.9a5.01 5.01 0 01-4-4.9zm40 7c0 1.654-1.346 3-3 3H23c-1.654 0-3-1.346-3-3V36c0-1.654 1.346-3 3-3h28c1.654 0 3 1.346 3 3v21zm2-2.101v-11.97A8.264 8.264 0 0160 50a5.008 5.008 0 01-4 4.899z"></path><path d="M31 22c-1.654 0-3 1.346-3 3h2a1.001 1.001 0 012 0h2c0-1.654-1.346-3-3-3zM43 22c-1.654 0-3 1.346-3 3h2a1.001 1.001 0 012 0h2c0-1.654-1.346-3-3-3zM3 16h8.764l3.789 1.895a1.005 1.005 0 00.973-.044c.294-.183.474-.504.474-.851v-2h1a1 1 0 001-1V3a1 1 0 00-1-1H3a1 1 0 00-1 1v12a1 1 0 001 1zM4 4h13v9h-1a1 1 0 00-1 1v1.382l-2.553-1.276A.99.99 0 0012 14H4V4z"></path><path d="M6 6h2v2H6zM10 6h5v2h-5zM6 10h9v2H6zM47.646 38.551a.985.985 0 00-.887.276L43.5 42.086 41.914 40.5l3.259-3.259a.997.997 0 00-.295-1.618 6.981 6.981 0 00-4.451-.446 6.971 6.971 0 00-5.25 5.249 7.007 7.007 0 00.188 3.796l-7.451 7.45A3.142 3.142 0 0027 53.879C27 55.6 28.4 57 30.121 57c.834 0 1.618-.324 2.207-.914l7.451-7.45a6.983 6.983 0 003.794.188 6.971 6.971 0 005.25-5.249 7.002 7.002 0 00-.446-4.452.996.996 0 00-.731-.572zm-.774 4.584c-.41 1.825-1.912 3.327-3.738 3.737a5.005 5.005 0 01-3.188-.317 1 1 0 00-1.119.204l-7.913 7.913a1.122 1.122 0 01-1.586-1.586l7.913-7.913c.294-.294.375-.74.204-1.119a5.005 5.005 0 01-.317-3.188c.41-1.825 1.912-3.327 3.738-3.737a5.127 5.127 0 011.688-.096l-2.761 2.761a.999.999 0 000 1.414l3 3a.999.999 0 001.414 0l2.761-2.761a5.097 5.097 0 01-.096 1.688z"></path></g><!----></svg>