<svg data-v-fde0c5aa="" xmlns="http://www.w3.org/2000/svg" viewBox="0 0 300 300" class="font"><!----><defs data-v-fde0c5aa=""><!----></defs><rect data-v-fde0c5aa="" fill="#ffffe" x="0" y="0" width="300px" height="300px" class="logo-background-square"></rect><defs data-v-fde0c5aa=""><!----></defs><g data-v-fde0c5aa="" id="6f435937-cc57-4b77-a14d-d96cf78ab881" fill="#272343" transform="matrix(4.291008348658714,0,0,4.291008348658714,39.39925882863014,117.45270151173467)"><path d="M6.27 12.75L4.34 12.75L4.34 5.63Q4.34 5.39 4.25 5.23Q4.16 5.07 3.95 4.86Q3.74 4.65 3.61 4.65L3.61 4.65Q3.33 4.65 2.87 5.21L2.87 5.21Q2.91 5.56 2.91 5.95L2.91 5.95L2.91 12.75L0.98 12.75L0.98 6.76Q0.98 5.57 0.82 5.10Q0.66 4.62 0.14 3.96L0.14 3.96L1.82 2.79Q2.27 3.11 2.46 3.56L2.46 3.56Q3.47 2.79 3.89 2.79Q4.31 2.79 5.47 3.86L5.47 3.86Q6.64 2.79 7.11 2.79L7.11 2.79Q7.46 2.79 8.31 3.52Q9.16 4.26 9.37 4.56Q9.58 4.86 9.58 5.35L9.58 5.35L9.58 12.75L7.64 12.75L7.64 5.63Q7.64 5.36 7.55 5.21Q7.45 5.07 7.22 4.86Q6.99 4.65 6.81 4.65Q6.64 4.65 6.26 5.11L6.26 5.11Q6.27 5.18 6.27 5.35L6.27 5.35L6.27 12.75ZM10.84 10.65L10.84 5.21L12.68 5.21L12.68 10.05Q12.68 10.77 12.85 11.16Q13.02 11.55 13.38 11.84L13.38 11.84L11.84 12.92Q10.84 12.12 10.84 10.65L10.84 10.65ZM11.79 2.28Q11.94 2.28 12.47 2.74Q13.01 3.19 13.01 3.35Q13.01 3.51 12.47 3.98Q11.93 4.44 11.78 4.44Q11.63 4.44 11.10 3.98Q10.57 3.53 10.57 3.37Q10.57 3.21 11.11 2.74Q11.65 2.28 11.79 2.28ZM16.14 7.66L16.14 12.75L14.29 12.75L14.29 5.11Q14.29 4.40 14.13 4.02Q13.96 3.64 13.59 3.33L13.59 3.33L15.13 2.25Q16.14 3.05 16.14 4.51L16.14 4.51L16.14 6.10Q17.23 5.04 17.60 5.04Q17.96 5.04 18.89 5.84Q19.81 6.64 19.84 7.08L19.84 7.08Q19.84 7.41 19.40 8.18Q18.96 8.95 18.55 9.35L18.55 9.35Q19.57 10.61 19.85 11.69L19.85 11.69L18.09 12.92Q17.77 11.79 17.42 11.04Q17.07 10.29 16.44 9.63L16.44 9.63L16.44 9.14Q16.87 8.83 17.36 8.24Q17.85 7.64 17.92 7.32L17.92 7.32Q17.53 6.79 17.25 6.79L17.25 6.79Q17.09 6.79 16.74 7.09Q16.38 7.39 16.14 7.66L16.14 7.66ZM26.08 8.96L26.08 8.96L26.08 9.46L22.69 9.46Q22.69 10.30 22.90 10.79L22.90 10.79Q22.97 10.96 23.16 11.14Q23.34 11.31 23.53 11.31Q23.73 11.31 24.02 10.98Q24.32 10.64 24.49 10.16L24.49 10.16L25.93 11.19Q25.55 11.89 24.77 12.40Q24.00 12.92 23.52 12.92Q23.04 12.92 22.14 12.18Q21.24 11.44 21.04 11.02Q20.85 10.61 20.85 8.98Q20.85 7.35 21.04 6.94Q21.24 6.52 22.14 5.78Q23.04 5.04 23.46 5.04Q23.88 5.04 24.79 5.78Q25.69 6.52 25.89 6.94Q26.08 7.35 26.08 8.96ZM24.14 7.20Q24.04 7.01 23.82 6.83Q23.60 6.65 23.42 6.65Q23.23 6.65 22.99 7.02Q22.75 7.39 22.69 8.13L22.69 8.13L24.29 8.13Q24.25 7.39 24.14 7.20ZM29.55 12.75L27.62 12.75L27.62 7.17Q27.62 5.45 27.90 4.96Q28.18 4.47 29.10 3.63Q30.02 2.79 30.46 2.79L30.46 2.79Q31.08 2.79 31.99 3.28Q32.90 3.77 33.35 4.38L33.35 4.38L31.79 5.46Q31.01 4.68 30.53 4.68L30.53 4.68Q30.35 4.68 30.11 4.91Q29.88 5.14 29.72 5.40Q29.55 5.66 29.55 6.71L29.55 6.71L29.55 7.03L32.06 7.03L32.06 8.72L29.55 8.72L29.55 12.75ZM36.02 11.10Q36.23 11.31 36.36 11.31Q36.48 11.31 36.70 11.10Q36.92 10.89 37.02 10.72L37.02 10.72Q37.20 10.42 37.20 8.99Q37.20 7.56 37.02 7.24L37.02 7.24Q36.92 7.07 36.70 6.86Q36.48 6.65 36.36 6.65Q36.23 6.65 36.02 6.86Q35.80 7.07 35.70 7.24L35.70 7.24Q35.52 7.55 35.52 8.97Q35.52 10.40 35.70 10.72L35.70 10.72Q35.80 10.89 36.02 11.10ZM37.63 12.24Q36.76 12.92 36.36 12.92Q35.95 12.92 35.09 12.24Q34.23 11.55 34.03 11.21L34.03 11.21Q33.74 10.70 33.74 8.97Q33.74 7.25 34.03 6.75L34.03 6.75Q34.23 6.41 35.09 5.73Q35.95 5.04 36.36 5.04Q36.76 5.04 37.63 5.73Q38.49 6.41 38.68 6.75L38.68 6.75Q38.98 7.25 38.98 8.97Q38.98 10.70 38.68 11.21L38.68 11.21Q38.49 11.55 37.63 12.24ZM39.89 10.65L39.89 2.25L41.73 2.25L41.73 10.05Q41.73 10.77 41.90 11.16Q42.07 11.55 42.43 11.84L42.43 11.84L40.89 12.92Q39.89 12.12 39.89 10.65L39.89 10.65ZM43.20 10.65L43.20 5.21L45.05 5.21L45.05 10.05Q45.05 10.77 45.22 11.16Q45.39 11.55 45.75 11.84L45.75 11.84L44.21 12.92Q43.20 12.12 43.20 10.65L43.20 10.65ZM44.16 2.28Q44.31 2.28 44.84 2.74Q45.37 3.19 45.37 3.35Q45.37 3.51 44.84 3.98Q44.30 4.44 44.15 4.44Q44.00 4.44 43.47 3.98Q42.94 3.53 42.94 3.37Q42.94 3.21 43.48 2.74Q44.02 2.28 44.16 2.28ZM48.45 11.10Q48.66 11.31 48.79 11.31Q48.92 11.31 49.13 11.10Q49.35 10.89 49.45 10.72L49.45 10.72Q49.63 10.42 49.63 8.99Q49.63 7.56 49.45 7.24L49.45 7.24Q49.35 7.07 49.13 6.86Q48.92 6.65 48.79 6.65Q48.66 6.65 48.45 6.86Q48.23 7.07 48.13 7.24L48.13 7.24Q47.95 7.55 47.95 8.97Q47.95 10.40 48.13 10.72L48.13 10.72Q48.23 10.89 48.45 11.10ZM50.06 12.24Q49.20 12.92 48.79 12.92Q48.38 12.92 47.52 12.24Q46.66 11.55 46.47 11.21L46.47 11.21Q46.17 10.70 46.17 8.97Q46.17 7.25 46.47 6.75L46.47 6.75Q46.66 6.41 47.52 5.73Q48.38 5.04 48.79 5.04Q49.20 5.04 50.06 5.73Q50.92 6.41 51.11 6.75L51.11 6.75Q51.41 7.25 51.41 8.97Q51.41 10.70 51.11 11.21L51.11 11.21Q50.92 11.55 50.06 12.24Z"></path></g><!----><!----></svg>