<svg xmlns="http://www.w3.org/2000/svg" version="1.1" xmlns:xlink="http://www.w3.org/1999/xlink" xmlns:svgjs="http://svgjs.dev/svgjs" width="1440" height="560" preserveAspectRatio="none" viewBox="0 0 1440 560">
    <g mask="url(&quot;#SvgjsMask1023&quot;)" fill="none">
        <rect width="1440" height="560" x="0" y="0" fill="rgba(30, 30, 30, 1)"></rect>
        <path d="M226.04 514.05 a26.12 26.12 0 1 0 52.24 0 a26.12 26.12 0 1 0 -52.24 0z" fill="rgba(193, 201, 240, 1)"></path>
        <path d="M336.55 367.82 a46.81 46.81 0 1 0 93.62 0 a46.81 46.81 0 1 0 -93.62 0z" fill="rgba(193, 201, 240, 1)"></path>
        <path d="M644.49 85.64L680.43 85.64L680.43 121.58L644.49 121.58z" fill="rgba(193, 201, 240, 1)"></path>
        <path d="M140.8 218.86L184.48 218.86L184.48 264.5L140.8 264.5z" stroke="rgba(193, 201, 240, 1)"></path>
        <path d="M1085.22 354.47a27.32 27.32 0 1 0 54.34-5.68z" stroke="rgba(193, 201, 240, 1)"></path>
        <path d="M772.17 486.21a9.55 9.55 0 1 0 17.92-6.62z" fill="rgba(193, 201, 240, 1)"></path>
        <path d="M100.36 4.34L132.15 4.34L132.15 36.13L100.36 36.13z" stroke="rgba(193, 201, 240, 1)"></path>
        <path d="M260.49 151.37L279.68 151.37L279.68 170.56L260.49 170.56z" fill="rgba(193, 201, 240, 1)"></path>
        <path d="M127.52 326.45L136.69 326.45L136.69 353.52L127.52 353.52z" stroke="rgba(193, 201, 240, 1)"></path>
        <path d="M400.35 461.81 a14.09 14.09 0 1 0 28.18 0 a14.09 14.09 0 1 0 -28.18 0z" stroke="rgba(193, 201, 240, 1)"></path>
        <path d="M153.1 473.38L155 473.38L155 475.28L153.1 475.28z" stroke="rgba(193, 201, 240, 1)"></path>
        <path d="M456.15 519.81L476.8 519.81L476.8 571.46L456.15 571.46z" fill="rgba(193, 201, 240, 1)"></path>
        <path d="M278.49 414.79L295.57 414.79L295.57 431.87L278.49 431.87z" stroke="rgba(193, 201, 240, 1)"></path>
        <path d="M1191.13 294.91L1240.9 294.91L1240.9 344.68L1191.13 344.68z" fill="rgba(193, 201, 240, 1)"></path>
        <path d="M933.61 230.46a20.45 20.45 0 1 0-39.9 8.98z" fill="rgba(193, 201, 240, 1)"></path>
        <path d="M812.07 339.35L845.47 339.35L845.47 372.75L812.07 372.75z" fill="rgba(193, 201, 240, 1)"></path>
        <path d="M402.92 187.55L433.06 187.55L433.06 232.2L402.92 232.2z" stroke="rgba(193, 201, 240, 1)"></path>
        <path d="M430.63 47.59L446.01 47.59L446.01 58.45L430.63 58.45z" stroke="rgba(193, 201, 240, 1)"></path>
        <path d="M353.19 70.92L374.73 70.92L374.73 92.46L353.19 92.46z" stroke="rgba(193, 201, 240, 1)"></path>
        <path d="M1267.44 12.32L1268.38 12.32L1268.38 13.26L1267.44 13.26z" fill="rgba(193, 201, 240, 1)"></path>
        <path d="M244.78 200.83L286.1 200.83L286.1 237.28L244.78 237.28z" stroke="rgba(193, 201, 240, 1)"></path>
        <path d="M725.11 472.61L779.03 472.61L779.03 484.59L725.11 484.59z" stroke="rgba(193, 201, 240, 1)"></path>
        <path d="M547.04 337.47L600.37 337.47L600.37 384.21L547.04 384.21z" stroke="rgba(193, 201, 240, 1)"></path>
        <path d="M1086.02 226.87 a2.76 2.76 0 1 0 5.52 0 a2.76 2.76 0 1 0 -5.52 0z" fill="rgba(193, 201, 240, 1)"></path>
        <path d="M376.11 475.54 a0.94 0.94 0 1 0 1.88 0 a0.94 0.94 0 1 0 -1.88 0z" fill="rgba(193, 201, 240, 1)"></path>
        <path d="M1039.18 410.47L1046.98 410.47L1046.98 431.44L1039.18 431.44z" fill="rgba(193, 201, 240, 1)"></path>
        <path d="M972.37 438.31L1007.82 438.31L1007.82 454.94L972.37 454.94z" fill="rgba(193, 201, 240, 1)"></path>
        <path d="M87.5 149.23a37.34 37.34 0 1 0 74.55 4.42z" stroke="rgba(193, 201, 240, 1)"></path>
        <path d="M1141.71 94.64 a1.33 1.33 0 1 0 2.66 0 a1.33 1.33 0 1 0 -2.66 0z" fill="rgba(193, 201, 240, 1)"></path>
        <path d="M1066.64 35.6 a48.89 48.89 0 1 0 97.78 0 a48.89 48.89 0 1 0 -97.78 0z" fill="rgba(193, 201, 240, 1)"></path>
        <path d="M176.29 258.61L211.79 258.61L211.79 286.49L176.29 286.49z" stroke="rgba(193, 201, 240, 1)"></path>
        <path d="M1248.9 496.1a51.08 51.08 0 1 0-31.75-97.11z" fill="rgba(193, 201, 240, 1)"></path>
        <path d="M1358.51 274.98L1382.1 274.98L1382.1 275.45L1358.51 275.45z" stroke="rgba(193, 201, 240, 1)"></path>
    </g>
    <defs>
        <mask id="SvgjsMask1023">
            <rect width="1440" height="560" fill="#ffffff"></rect>
        </mask>
    </defs>
</svg>